<svg xmlns="http://www.w3.org/2000/svg" viewBox="0 0 32 32">
  <rect width="32" height="32" rx="7" fill="#B8321A"/>
  <g fill="none">
    <!-- Sun disc -->
    <circle cx="19" cy="13" r="8" fill="#FFFFFF"/>
    <!-- Sun rays -->
    <g stroke="#FFFFFF" stroke-width="1.2" stroke-linecap="round">
      <line x1="19" y1="4" x2="19" y2="6"/>
      <line x1="19" y1="20" x2="19" y2="22"/>
      <line x1="10" y1="13" x2="12" y2="13"/>
      <line x1="26" y1="13" x2="28" y2="13"/>
      <line x1="12.6" y1="6.6" x2="14" y2="8"/>
      <line x1="24" y1="18" x2="25.4" y2="19.4"/>
      <line x1="25.4" y1="6.6" x2="24" y2="8"/>
      <line x1="14" y1="18" x2="12.6" y2="19.4"/>
    </g>
    <!-- Figure reaching for the sun -->
    <g stroke="#B8321A" stroke-width="2" stroke-linecap="round" stroke-linejoin="round">
      <path d="M6 26C6 26 7.5 21.5 10 20C12.5 18.5 14 19 14 20.5C14 22 12.5 22.5 11 24"/>
      <circle cx="11.5" cy="17.5" r="2.2" fill="#B8321A" stroke="none"/>
      <path d="M12.5 19C14 16.5 15.5 14.5 18.5 14.5"/>
    </g>
    <!-- Coin -->
    <g>
      <circle cx="17.5" cy="13" r="2.6" fill="#B8321A"/>
      <circle cx="17.5" cy="13" r="1.6" stroke="#FFFFFF" stroke-width="0.6" fill="none" opacity="0.7"/>
    </g>
  </g>
</svg>